<svg width="1451" height="751" xmlns="http://www.w3.org/2000/svg" xmlns:xlink="http://www.w3.org/1999/xlink" fill="#ffffff"><defs><style>
  text {
    fill: #212529;
    font-family: Helvetica Neue, Helvetica, Arial, sans-serif;
    font-size: 16px;
  }

  marker, text {
    fill-opacity: 1;
  }

  * {
    overflow: visible;
  }
</style></defs><svg x="135" y="95" width="240" height="230" class="Webbrowser" fill="#ffffff"><g><g><path d="M 0 8 l 8 -8 H 240 l -8 8 Z" stroke="black" fill="white" class="sc-gEvEer fkqzOi"></path><path d="M 240 0 V 222 l -8 8 V 8 Z" stroke="black" fill="white" class="sc-gEvEer fkqzOi"></path><rect x="0" y="8" width="232" height="221" stroke="black" fill="white" class="sc-fqkvVR uHYUy"></rect></g><text x="50%" y="30" dominant-baseline="middle" text-anchor="middle" font-weight="bold" pointer-events="none"><tspan x="50%" dy="-8" text-anchor="middle" font-size="85%">«browser»</tspan><tspan x="50%" dy="18" text-decoration="underline" text-anchor="middle">Webbrowser</tspan></text></g></svg><svg x="185" y="175" width="160" height="100" class="Sprout UI" fill="#ffffff"><g data-cy="uml-component"><rect width="100%" height="100%" stroke="black" fill="white" class="sc-fqkvVR uHYUy"></rect><g transform="translate(129, 7)"><path d="M 4.8 0 L 24 0 L 24 24 L 4.8 24 L 4.8 19.2 L 0 19.2 L 0 14.4 L 4.8 14.4 L 4.8 9.6 L 0 9.6 L 0 4.8 L 4.8 4.8 Z" stroke-width="1.2" stroke-miterlimit="10" stroke="black" fill="white" class="sc-gEvEer fkqzOi"></path><path d="M 4.8 4.8 L 9.6 4.8 L 9.6 9.6 L 4.8 9.6 M 4.8 14.4 L 9.6 14.4 L 9.6 19.2 L 4.8 19.2" stroke-width="1.2" stroke-miterlimit="10" stroke="black" fill="none" class="sc-gEvEer bFSwyf"></path></g><text x="50%" y="50%" dominant-baseline="middle" text-anchor="middle" font-weight="bold" pointer-events="none"><tspan x="50%" dy="-8" text-anchor="middle" font-size="85%">«component»</tspan><tspan x="50%" dy="18" text-anchor="middle">Sprout UI</tspan></text></g></svg><svg x="625" y="25" width="350" height="270" class="Backend" fill="#ffffff"><g><g><path d="M 0 8 l 8 -8 H 350 l -8 8 Z" stroke="black" fill="white" class="sc-gEvEer fkqzOi"></path><path d="M 350 0 V 262 l -8 8 V 8 Z" stroke="black" fill="white" class="sc-gEvEer fkqzOi"></path><rect x="0" y="8" width="342" height="261" stroke="black" fill="white" class="sc-fqkvVR uHYUy"></rect></g><text x="50%" y="30" dominant-baseline="middle" text-anchor="middle" font-weight="bold" pointer-events="none"><tspan x="50%" dy="-8" text-anchor="middle" font-size="85%">«docker container»</tspan><tspan x="50%" dy="18" text-decoration="underline" text-anchor="middle">Backend</tspan></text></g></svg><svg x="685" y="105" width="230" height="170" class="Scala Playframework" fill="#ffffff"><g><g><path d="M 0 8 l 8 -8 H 230 l -8 8 Z" stroke="black" fill="white" class="sc-gEvEer fkqzOi"></path><path d="M 230 0 V 162 l -8 8 V 8 Z" stroke="black" fill="white" class="sc-gEvEer fkqzOi"></path><rect x="0" y="8" width="222" height="161" stroke="black" fill="white" class="sc-fqkvVR uHYUy"></rect></g><text x="50%" y="30" dominant-baseline="middle" text-anchor="middle" font-weight="bold" pointer-events="none"><tspan x="50%" dy="0" text-decoration="underline" text-anchor="middle">Scala Playframework</tspan></text></g></svg><svg x="715" y="155" width="180" height="100" class="Sprout Domain Logic" fill="#ffffff"><g data-cy="uml-component"><rect width="100%" height="100%" stroke="black" fill="white" class="sc-fqkvVR uHYUy"></rect><g transform="translate(149, 7)"><path d="M 4.8 0 L 24 0 L 24 24 L 4.8 24 L 4.8 19.2 L 0 19.2 L 0 14.4 L 4.8 14.4 L 4.8 9.6 L 0 9.6 L 0 4.8 L 4.8 4.8 Z" stroke-width="1.2" stroke-miterlimit="10" stroke="black" fill="white" class="sc-gEvEer fkqzOi"></path><path d="M 4.8 4.8 L 9.6 4.8 L 9.6 9.6 L 4.8 9.6 M 4.8 14.4 L 9.6 14.4 L 9.6 19.2 L 4.8 19.2" stroke-width="1.2" stroke-miterlimit="10" stroke="black" fill="none" class="sc-gEvEer bFSwyf"></path></g><text x="50%" y="50%" dominant-baseline="middle" text-anchor="middle" font-weight="bold" pointer-events="none"><tspan x="50%" dy="-8" text-anchor="middle" font-size="85%">«component»</tspan><tspan x="50%" dy="18" text-anchor="middle">Sprout Domain Logic</tspan></text></g></svg><svg x="455" y="405" width="330" height="250" class="Qwik" fill="#ffffff"><g><g><path d="M 0 8 l 8 -8 H 330 l -8 8 Z" stroke="black" fill="white" class="sc-gEvEer fkqzOi"></path><path d="M 330 0 V 242 l -8 8 V 8 Z" stroke="black" fill="white" class="sc-gEvEer fkqzOi"></path><rect x="0" y="8" width="322" height="241" stroke="black" fill="white" class="sc-fqkvVR uHYUy"></rect></g><text x="50%" y="30" dominant-baseline="middle" text-anchor="middle" font-weight="bold" pointer-events="none"><tspan x="50%" dy="-8" text-anchor="middle" font-size="85%">«docker container»</tspan><tspan x="50%" dy="18" text-decoration="underline" text-anchor="middle">Qwik</tspan></text></g></svg><svg x="495" y="475" width="240" height="150" class="Qwik City SSR backend" fill="#ffffff"><g data-cy="uml-component"><rect width="100%" height="100%" stroke="black" fill="white" class="sc-fqkvVR uHYUy"></rect><g transform="translate(209, 7)"><path d="M 4.8 0 L 24 0 L 24 24 L 4.8 24 L 4.8 19.2 L 0 19.2 L 0 14.4 L 4.8 14.4 L 4.8 9.6 L 0 9.6 L 0 4.8 L 4.8 4.8 Z" stroke-width="1.2" stroke-miterlimit="10" stroke="black" fill="white" class="sc-gEvEer fkqzOi"></path><path d="M 4.8 4.8 L 9.6 4.8 L 9.6 9.6 L 4.8 9.6 M 4.8 14.4 L 9.6 14.4 L 9.6 19.2 L 4.8 19.2" stroke-width="1.2" stroke-miterlimit="10" stroke="black" fill="none" class="sc-gEvEer bFSwyf"></path></g><text x="50%" y="50%" dominant-baseline="middle" text-anchor="middle" font-weight="bold" pointer-events="none"><tspan x="50%" dy="-8" text-anchor="middle" font-size="85%">«component»</tspan><tspan x="50%" dy="18" text-anchor="middle">Qwik City SSR backend</tspan></text></g></svg><svg x="1135" y="15" width="300" height="280" class="Database" fill="#ffffff"><g><g><path d="M 0 8 l 8 -8 H 300 l -8 8 Z" stroke="black" fill="white" class="sc-gEvEer fkqzOi"></path><path d="M 300 0 V 272 l -8 8 V 8 Z" stroke="black" fill="white" class="sc-gEvEer fkqzOi"></path><rect x="0" y="8" width="292" height="271" stroke="black" fill="white" class="sc-fqkvVR uHYUy"></rect></g><text x="50%" y="30" dominant-baseline="middle" text-anchor="middle" font-weight="bold" pointer-events="none"><tspan x="50%" dy="-8" text-anchor="middle" font-size="85%">«docker container»</tspan><tspan x="50%" dy="18" text-decoration="underline" text-anchor="middle">Database</tspan></text></g></svg><svg x="1175" y="95" width="230" height="160" class="PostgreSQL" fill="#ffffff"><g><g><path d="M 0 8 l 8 -8 H 230 l -8 8 Z" stroke="black" fill="white" class="sc-gEvEer fkqzOi"></path><path d="M 230 0 V 152 l -8 8 V 8 Z" stroke="black" fill="white" class="sc-gEvEer fkqzOi"></path><rect x="0" y="8" width="222" height="151" stroke="black" fill="white" class="sc-fqkvVR uHYUy"></rect></g><text x="50%" y="30" dominant-baseline="middle" text-anchor="middle" font-weight="bold" pointer-events="none"><tspan x="50%" dy="-8" text-anchor="middle" font-size="85%">«database»</tspan><tspan x="50%" dy="18" text-decoration="underline" text-anchor="middle">PostgreSQL</tspan></text></g></svg><svg x="15" y="635" width="180" height="100" class="VersaTiles Map Tiles" fill="#ffffff"><g data-cy="uml-component"><rect width="100%" height="100%" stroke="black" fill="white" class="sc-fqkvVR uHYUy"></rect><g transform="translate(149, 7)"><path d="M 4.8 0 L 24 0 L 24 24 L 4.8 24 L 4.8 19.2 L 0 19.2 L 0 14.4 L 4.8 14.4 L 4.8 9.6 L 0 9.6 L 0 4.8 L 4.8 4.8 Z" stroke-width="1.2" stroke-miterlimit="10" stroke="black" fill="white" class="sc-gEvEer fkqzOi"></path><path d="M 4.8 4.8 L 9.6 4.8 L 9.6 9.6 L 4.8 9.6 M 4.8 14.4 L 9.6 14.4 L 9.6 19.2 L 4.8 19.2" stroke-width="1.2" stroke-miterlimit="10" stroke="black" fill="none" class="sc-gEvEer bFSwyf"></path></g><text x="50%" y="50%" dominant-baseline="middle" text-anchor="middle" font-weight="bold" pointer-events="none"><tspan x="50%" dy="-8" text-anchor="middle" font-size="85%">«component»</tspan><tspan x="50%" dy="18" text-anchor="middle">VersaTiles Map Tiles</tspan></text></g></svg><svg x="95" y="445" width="20" height="20" class="Map Tiles API" fill="#ffffff"><g><circle cx="50%" cy="50%" r="10" stroke-width="2" stroke="black" fill="white" class="sc-iGgWBj fYmGgq"></circle><text x="25" dominant-baseline="auto" text-anchor="start" font-weight="bold" pointer-events="none">Map Tiles API</text></g></svg><svg x="345" y="185" width="340" height="41" class="REST" fill="#ffffff"><g><polyline points="0 40,340 40" stroke-width="1" stroke="black" fill="none" class="sc-aXZVg eMElBf"></polyline><text x="170" y="40" dominant-baseline="text-after-edge" text-anchor="middle" font-weight="bold" pointer-events="none" dy="-5">REST</text></g></svg><svg x="105" y="465" width="1" height="170" class="" fill="#ffffff"><g><polyline points="0 170,0 0" stroke="black" fill="none" class="sc-aXZVg eMElBf"></polyline></g></svg><svg x="915" y="140" width="260" height="41" class="SQL" fill="#ffffff"><g><polyline points="0 40,260 40" stroke-width="1" stroke="black" fill="none" class="sc-aXZVg eMElBf"></polyline><text x="130" y="40" dominant-baseline="text-after-edge" text-anchor="middle" font-weight="bold" pointer-events="none" dy="-5">SQL</text></g></svg><svg x="710" y="275" width="47.650001525878906" height="200" class="REST" fill="#ffffff"><g><polyline points="0 200,0 0" stroke-width="1" stroke="black" fill="none" class="sc-aXZVg eMElBf"></polyline><text x="0" y="100" dominant-baseline="middle" text-anchor="start" font-weight="bold" pointer-events="none" dx="5">REST</text></g></svg><svg x="92" y="225" width="93" height="234" class="" fill="#ffffff"><g><marker id="marker-7a16875c-8d62-4588-a1ea-6ce2e4b88dec" viewBox="0 0 27 27" markerWidth="27" markerHeight="27" refX="0" refY="0" orient="auto" markerUnits="strokeWidth"><path d="M 8 -12.5 C -3.5 -7.5 -3.3 7.9 8 12.5" stroke-width="2" stroke="black" fill="none" class="sc-gEvEer bFSwyf"></path></marker><polyline points="93 0,13 0,13 217" stroke-width="1" marker-end="url(#marker-7a16875c-8d62-4588-a1ea-6ce2e4b88dec)" stroke="black" fill="none" class="sc-aXZVg eMElBf"></polyline></g></svg><svg x="265" y="275" width="230" height="275" class="HTTP" fill="#ffffff"><g><polyline points="0 0,0 275,230 275" stroke-width="1" stroke="black" fill="none" class="sc-aXZVg eMElBf"></polyline><text x="0" y="252.5" dominant-baseline="middle" text-anchor="start" font-weight="bold" pointer-events="none" dx="5">HTTP</text></g></svg></svg>