<svg width="1371" height="981" xmlns="http://www.w3.org/2000/svg" xmlns:xlink="http://www.w3.org/1999/xlink" fill="#ffffff"><defs><style>
  text {
    fill: #212529;
    font-family: Helvetica Neue, Helvetica, Arial, sans-serif;
    font-size: 16px;
  }

  marker, text {
    fill-opacity: 1;
  }

  * {
    overflow: visible;
  }
</style></defs><svg x="145" y="385" width="240" height="230" class="Webbrowser" fill="#ffffff"><g><g><path d="M 0 8 l 8 -8 H 240 l -8 8 Z" stroke="black" fill="white" class="sc-gEvEer fkqzOi"></path><path d="M 240 0 V 222 l -8 8 V 8 Z" stroke="black" fill="white" class="sc-gEvEer fkqzOi"></path><rect x="0" y="8" width="232" height="221" stroke="black" fill="white" class="sc-fqkvVR uHYUy"></rect></g><text x="50%" y="30" dominant-baseline="middle" text-anchor="middle" font-weight="bold" pointer-events="none"><tspan x="50%" dy="-8" text-anchor="middle" font-size="85%">«browser»</tspan><tspan x="50%" dy="18" text-decoration="underline" text-anchor="middle">Webbrowser</tspan></text></g></svg><svg x="195" y="465" width="160" height="100" class="Sprout UI" fill="#ffffff"><g data-cy="uml-component"><rect width="100%" height="100%" stroke="black" fill="white" class="sc-fqkvVR uHYUy"></rect><g transform="translate(129, 7)"><path d="M 4.8 0 L 24 0 L 24 24 L 4.8 24 L 4.8 19.2 L 0 19.2 L 0 14.4 L 4.8 14.4 L 4.8 9.6 L 0 9.6 L 0 4.8 L 4.8 4.8 Z" stroke-width="1.2" stroke-miterlimit="10" stroke="black" fill="white" class="sc-gEvEer fkqzOi"></path><path d="M 4.8 4.8 L 9.6 4.8 L 9.6 9.6 L 4.8 9.6 M 4.8 14.4 L 9.6 14.4 L 9.6 19.2 L 4.8 19.2" stroke-width="1.2" stroke-miterlimit="10" stroke="black" fill="none" class="sc-gEvEer bFSwyf"></path></g><text x="50%" y="50%" dominant-baseline="middle" text-anchor="middle" font-weight="bold" pointer-events="none"><tspan x="50%" dy="-8" text-anchor="middle" font-size="85%">«component»</tspan><tspan x="50%" dy="18" text-anchor="middle">Sprout UI</tspan></text></g></svg><svg x="855" y="175" width="350" height="270" class="Backend" fill="#ffffff"><g><g><path d="M 0 8 l 8 -8 H 350 l -8 8 Z" stroke="black" fill="white" class="sc-gEvEer fkqzOi"></path><path d="M 350 0 V 262 l -8 8 V 8 Z" stroke="black" fill="white" class="sc-gEvEer fkqzOi"></path><rect x="0" y="8" width="342" height="261" stroke="black" fill="white" class="sc-fqkvVR uHYUy"></rect></g><text x="50%" y="30" dominant-baseline="middle" text-anchor="middle" font-weight="bold" pointer-events="none"><tspan x="50%" dy="-8" text-anchor="middle" font-size="85%">«docker container»</tspan><tspan x="50%" dy="18" text-decoration="underline" text-anchor="middle">Backend</tspan></text></g></svg><svg x="915" y="255" width="230" height="170" class="Spring Framework" fill="#ffffff"><g><g><path d="M 0 8 l 8 -8 H 230 l -8 8 Z" stroke="black" fill="white" class="sc-gEvEer fkqzOi"></path><path d="M 230 0 V 162 l -8 8 V 8 Z" stroke="black" fill="white" class="sc-gEvEer fkqzOi"></path><rect x="0" y="8" width="222" height="161" stroke="black" fill="white" class="sc-fqkvVR uHYUy"></rect></g><text x="50%" y="30" dominant-baseline="middle" text-anchor="middle" font-weight="bold" pointer-events="none"><tspan x="50%" dy="0" text-decoration="underline" text-anchor="middle">Spring Framework</tspan></text></g></svg><svg x="945" y="305" width="180" height="100" class="Sprout Domain Logic" fill="#ffffff"><g data-cy="uml-component"><rect width="100%" height="100%" stroke="black" fill="white" class="sc-fqkvVR uHYUy"></rect><g transform="translate(149, 7)"><path d="M 4.8 0 L 24 0 L 24 24 L 4.8 24 L 4.8 19.2 L 0 19.2 L 0 14.4 L 4.8 14.4 L 4.8 9.6 L 0 9.6 L 0 4.8 L 4.8 4.8 Z" stroke-width="1.2" stroke-miterlimit="10" stroke="black" fill="white" class="sc-gEvEer fkqzOi"></path><path d="M 4.8 4.8 L 9.6 4.8 L 9.6 9.6 L 4.8 9.6 M 4.8 14.4 L 9.6 14.4 L 9.6 19.2 L 4.8 19.2" stroke-width="1.2" stroke-miterlimit="10" stroke="black" fill="none" class="sc-gEvEer bFSwyf"></path></g><text x="50%" y="50%" dominant-baseline="middle" text-anchor="middle" font-weight="bold" pointer-events="none"><tspan x="50%" dy="-8" text-anchor="middle" font-size="85%">«component»</tspan><tspan x="50%" dy="18" text-anchor="middle">Sprout Domain Logic</tspan></text></g></svg><svg x="525" y="645" width="330" height="250" class="Qwik" fill="#ffffff"><g><g><path d="M 0 8 l 8 -8 H 330 l -8 8 Z" stroke="black" fill="white" class="sc-gEvEer fkqzOi"></path><path d="M 330 0 V 242 l -8 8 V 8 Z" stroke="black" fill="white" class="sc-gEvEer fkqzOi"></path><rect x="0" y="8" width="322" height="241" stroke="black" fill="white" class="sc-fqkvVR uHYUy"></rect></g><text x="50%" y="30" dominant-baseline="middle" text-anchor="middle" font-weight="bold" pointer-events="none"><tspan x="50%" dy="-8" text-anchor="middle" font-size="85%">«docker container»</tspan><tspan x="50%" dy="18" text-decoration="underline" text-anchor="middle">Qwik</tspan></text></g></svg><svg x="565" y="715" width="240" height="150" class="Qwik City SSR backend" fill="#ffffff"><g data-cy="uml-component"><rect width="100%" height="100%" stroke="black" fill="white" class="sc-fqkvVR uHYUy"></rect><g transform="translate(209, 7)"><path d="M 4.8 0 L 24 0 L 24 24 L 4.8 24 L 4.8 19.2 L 0 19.2 L 0 14.4 L 4.8 14.4 L 4.8 9.6 L 0 9.6 L 0 4.8 L 4.8 4.8 Z" stroke-width="1.2" stroke-miterlimit="10" stroke="black" fill="white" class="sc-gEvEer fkqzOi"></path><path d="M 4.8 4.8 L 9.6 4.8 L 9.6 9.6 L 4.8 9.6 M 4.8 14.4 L 9.6 14.4 L 9.6 19.2 L 4.8 19.2" stroke-width="1.2" stroke-miterlimit="10" stroke="black" fill="none" class="sc-gEvEer bFSwyf"></path></g><text x="50%" y="50%" dominant-baseline="middle" text-anchor="middle" font-weight="bold" pointer-events="none"><tspan x="50%" dy="-8" text-anchor="middle" font-size="85%">«component»</tspan><tspan x="50%" dy="18" text-anchor="middle">Qwik City SSR backend</tspan></text></g></svg><svg x="1055" y="615" width="300" height="280" class="Database" fill="#ffffff"><g><g><path d="M 0 8 l 8 -8 H 300 l -8 8 Z" stroke="black" fill="white" class="sc-gEvEer fkqzOi"></path><path d="M 300 0 V 272 l -8 8 V 8 Z" stroke="black" fill="white" class="sc-gEvEer fkqzOi"></path><rect x="0" y="8" width="292" height="271" stroke="black" fill="white" class="sc-fqkvVR uHYUy"></rect></g><text x="50%" y="30" dominant-baseline="middle" text-anchor="middle" font-weight="bold" pointer-events="none"><tspan x="50%" dy="-8" text-anchor="middle" font-size="85%">«docker container»</tspan><tspan x="50%" dy="18" text-decoration="underline" text-anchor="middle">Database</tspan></text></g></svg><svg x="1095" y="695" width="230" height="160" class="PostgreSQL" fill="#ffffff"><g><g><path d="M 0 8 l 8 -8 H 230 l -8 8 Z" stroke="black" fill="white" class="sc-gEvEer fkqzOi"></path><path d="M 230 0 V 152 l -8 8 V 8 Z" stroke="black" fill="white" class="sc-gEvEer fkqzOi"></path><rect x="0" y="8" width="222" height="151" stroke="black" fill="white" class="sc-fqkvVR uHYUy"></rect></g><text x="50%" y="30" dominant-baseline="middle" text-anchor="middle" font-weight="bold" pointer-events="none"><tspan x="50%" dy="-8" text-anchor="middle" font-size="85%">«database»</tspan><tspan x="50%" dy="18" text-decoration="underline" text-anchor="middle">PostgreSQL</tspan></text></g></svg><svg x="15" y="865" width="180" height="100" class="VersaTiles Map Tiles" fill="#ffffff"><g data-cy="uml-component"><rect width="100%" height="100%" stroke="black" fill="white" class="sc-fqkvVR uHYUy"></rect><g transform="translate(149, 7)"><path d="M 4.8 0 L 24 0 L 24 24 L 4.8 24 L 4.8 19.2 L 0 19.2 L 0 14.4 L 4.8 14.4 L 4.8 9.6 L 0 9.6 L 0 4.8 L 4.8 4.8 Z" stroke-width="1.2" stroke-miterlimit="10" stroke="black" fill="white" class="sc-gEvEer fkqzOi"></path><path d="M 4.8 4.8 L 9.6 4.8 L 9.6 9.6 L 4.8 9.6 M 4.8 14.4 L 9.6 14.4 L 9.6 19.2 L 4.8 19.2" stroke-width="1.2" stroke-miterlimit="10" stroke="black" fill="none" class="sc-gEvEer bFSwyf"></path></g><text x="50%" y="50%" dominant-baseline="middle" text-anchor="middle" font-weight="bold" pointer-events="none"><tspan x="50%" dy="-8" text-anchor="middle" font-size="85%">«component»</tspan><tspan x="50%" dy="18" text-anchor="middle">VersaTiles Map Tiles</tspan></text></g></svg><svg x="95" y="675" width="20" height="20" class="Map Tiles API" fill="#ffffff"><g><circle cx="50%" cy="50%" r="10" stroke-width="2" stroke="black" fill="white" class="sc-iGgWBj fYmGgq"></circle><text x="25" dominant-baseline="auto" text-anchor="start" font-weight="bold" pointer-events="none">Map Tiles API</text></g></svg><svg x="675" y="505" width="20" height="20" class="Backend REST API" fill="#ffffff"><g><circle cx="50%" cy="50%" r="10" stroke-width="2" stroke="black" fill="white" class="sc-iGgWBj fYmGgq"></circle><text x="25" dominant-baseline="auto" text-anchor="start" font-weight="bold" pointer-events="none">Backend REST API</text></g></svg><svg x="285" y="15" width="280" height="210" class="Authentication Server" fill="#ffffff"><g><g><path d="M 0 8 l 8 -8 H 280 l -8 8 Z" stroke="black" fill="white" class="sc-gEvEer fkqzOi"></path><path d="M 280 0 V 202 l -8 8 V 8 Z" stroke="black" fill="white" class="sc-gEvEer fkqzOi"></path><rect x="0" y="8" width="272" height="201" stroke="black" fill="white" class="sc-fqkvVR uHYUy"></rect></g><text x="50%" y="30" dominant-baseline="middle" text-anchor="middle" font-weight="bold" pointer-events="none"><tspan x="50%" dy="-8" text-anchor="middle" font-size="85%">«docker container»</tspan><tspan x="50%" dy="18" text-decoration="underline" text-anchor="middle">Authentication Server</tspan></text></g></svg><svg x="325" y="85" width="200" height="120" class="Keycloak" fill="#ffffff"><g><g><path d="M 0 8 l 8 -8 H 200 l -8 8 Z" stroke="black" fill="white" class="sc-gEvEer fkqzOi"></path><path d="M 200 0 V 112 l -8 8 V 8 Z" stroke="black" fill="white" class="sc-gEvEer fkqzOi"></path><rect x="0" y="8" width="192" height="111" stroke="black" fill="white" class="sc-fqkvVR uHYUy"></rect></g><text x="50%" y="30" dominant-baseline="middle" text-anchor="middle" font-weight="bold" pointer-events="none"><tspan x="50%" dy="-8" text-anchor="middle" font-size="85%">«server»</tspan><tspan x="50%" dy="18" text-decoration="underline" text-anchor="middle">Keycloak</tspan></text></g></svg><svg x="415" y="325" width="20" height="20" class="OIDC Login" fill="#ffffff"><g><circle cx="50%" cy="50%" r="10" stroke-width="2" stroke="black" fill="white" class="sc-iGgWBj fYmGgq"></circle><text x="25" dominant-baseline="auto" text-anchor="start" font-weight="bold" pointer-events="none">OIDC Login</text></g></svg><svg x="635" y="135" width="20" height="20" class="OIDC Token Validation" fill="#ffffff"><g><circle cx="50%" cy="50%" r="10" stroke-width="2" stroke="black" fill="white" class="sc-iGgWBj fYmGgq"></circle><text x="25" dominant-baseline="auto" text-anchor="start" font-weight="bold" pointer-events="none">OIDC Token Validation</text></g></svg><svg x="355" y="502" width="334" height="27" class="REST" fill="#ffffff"><g><marker id="marker-f11d19fe-1b07-49e7-8652-778a2a7a87e9" viewBox="0 0 27 27" markerWidth="27" markerHeight="27" refX="0" refY="0" orient="auto" markerUnits="strokeWidth"><path d="M 2 -7.8 C -1.5 -3 -1.2 3.4 2 7.8" stroke-width="2" stroke="black" fill="none" class="sc-gEvEer bFSwyf"></path></marker><polyline points="0 13,317 13" stroke-width="1" marker-end="url(#marker-f11d19fe-1b07-49e7-8652-778a2a7a87e9)" stroke="black" fill="none" class="sc-aXZVg eMElBf"></polyline></g></svg><svg x="105" y="695" width="1" height="170" class="" fill="#ffffff"><g><polyline points="0 170,0 0" stroke="black" fill="none" class="sc-aXZVg eMElBf"></polyline></g></svg><svg x="1145" y="340" width="102.01666641235352" height="355" class="SQL" fill="#ffffff"><g><polyline points="0 0,65 0,65 355" stroke-width="1" stroke="black" fill="none" class="sc-aXZVg eMElBf"></polyline><text x="65" y="145" dominant-baseline="middle" text-anchor="start" font-weight="bold" pointer-events="none" dx="5">SQL</text></g></svg><svg x="672" y="512" width="27" height="203" class="REST" fill="#ffffff"><g><marker id="marker-f5e87a97-21fb-46f4-9914-8f5facdb0c59" viewBox="0 0 27 27" markerWidth="27" markerHeight="27" refX="0" refY="0" orient="auto" markerUnits="strokeWidth"><path d="M 2 -7.8 C -1.5 -3 -1.2 3.4 2 7.8" stroke-width="2" stroke="black" fill="none" class="sc-gEvEer bFSwyf"></path></marker><polyline points="13 203,13 16" stroke-width="1" marker-end="url(#marker-f5e87a97-21fb-46f4-9914-8f5facdb0c59)" stroke="black" fill="none" class="sc-aXZVg eMElBf"></polyline></g></svg><svg x="92" y="515" width="103" height="174" class="" fill="#ffffff"><g><marker id="marker-7a16875c-8d62-4588-a1ea-6ce2e4b88dec" viewBox="0 0 27 27" markerWidth="27" markerHeight="27" refX="0" refY="0" orient="auto" markerUnits="strokeWidth"><path d="M 8 -12.5 C -3.5 -7.5 -3.3 7.9 8 12.5" stroke-width="2" stroke="black" fill="none" class="sc-gEvEer bFSwyf"></path></marker><polyline points="103 0,13 0,13 157" stroke-width="1" marker-end="url(#marker-7a16875c-8d62-4588-a1ea-6ce2e4b88dec)" stroke="black" fill="none" class="sc-aXZVg eMElBf"></polyline></g></svg><svg x="275" y="565" width="290" height="225" class="HTTP" fill="#ffffff"><g><polyline points="0 0,0 225,290 225" stroke-width="1" stroke="black" fill="none" class="sc-aXZVg eMElBf"></polyline><text x="32.5" y="225" dominant-baseline="text-after-edge" text-anchor="middle" font-weight="bold" pointer-events="none" dy="-5">HTTP</text></g></svg><svg x="695" y="405" width="340" height="110" class="" fill="#ffffff"><g><polyline points="340 0,340 110,0 110" stroke="black" fill="none" class="sc-aXZVg eMElBf"></polyline></g></svg><svg x="425" y="205" width="1" height="120" class="" fill="#ffffff"><g><polyline points="0 120,0 0" stroke="black" fill="none" class="sc-aXZVg eMElBf"></polyline></g></svg><svg x="275" y="322" width="154" height="143" class="" fill="#ffffff"><g><marker id="marker-dfc2f7f9-38e0-4623-af04-5728ebda33b1" viewBox="0 0 27 27" markerWidth="27" markerHeight="27" refX="0" refY="0" orient="auto" markerUnits="strokeWidth"><path d="M 2 -7.8 C -1.5 -3 -1.2 3.4 2 7.8" stroke-width="2" stroke="black" fill="none" class="sc-gEvEer bFSwyf"></path></marker><polyline points="0 143,0 13,137 13" stroke-width="1" marker-end="url(#marker-dfc2f7f9-38e0-4623-af04-5728ebda33b1)" stroke="black" fill="none" class="sc-aXZVg eMElBf"></polyline></g></svg><svg x="412" y="332" width="153" height="420.5" class="" fill="#ffffff"><g><marker id="marker-31ceadb1-316e-4890-8760-df78943a2a10" viewBox="0 0 27 27" markerWidth="27" markerHeight="27" refX="0" refY="0" orient="auto" markerUnits="strokeWidth"><path d="M 2 -7.8 C -1.5 -3 -1.2 3.4 2 7.8" stroke-width="2" stroke="black" fill="none" class="sc-gEvEer bFSwyf"></path></marker><polyline points="153 420.5,13 420.5,13 16" stroke-width="1" marker-end="url(#marker-31ceadb1-316e-4890-8760-df78943a2a10)" stroke="black" fill="none" class="sc-aXZVg eMElBf"></polyline></g></svg><svg x="525" y="145" width="110" height="1" class="" fill="#ffffff"><g><polyline points="0 0,110 0" stroke="black" fill="none" class="sc-aXZVg eMElBf"></polyline></g></svg><svg x="642" y="132" width="303" height="223" class="" fill="#ffffff"><g><marker id="marker-66d90e6d-772f-4974-b353-783b43062785" viewBox="0 0 27 27" markerWidth="27" markerHeight="27" refX="0" refY="0" orient="auto" markerUnits="strokeWidth"><path d="M 8 -12.5 C -3.5 -7.5 -3.3 7.9 8 12.5" stroke-width="2" stroke="black" fill="none" class="sc-gEvEer bFSwyf"></path></marker><polyline points="303 223,158 223,158 13,16 13" stroke-width="1" marker-end="url(#marker-66d90e6d-772f-4974-b353-783b43062785)" stroke="black" fill="none" class="sc-aXZVg eMElBf"></polyline></g></svg></svg>