<svg xmlns="http://www.w3.org/2000/svg" xmlns:xlink="http://www.w3.org/1999/xlink" contentStyleType="text/css" data-diagram-type="CLASS" height="917px" preserveAspectRatio="none" style="width:284px;height:917px;background:#282828;" version="1.1" viewBox="0 0 284 917" width="284px" zoomAndPan="magnify"><defs/><g><rect fill="#282828" height="917" style="stroke:transparent;stroke-width:1;" width="284" x="0" y="0"/><!--class Nutzer--><g id="elem_Nutzer"><rect codeLine="14" fill="#282828" height="27.0146" id="Nutzer" rx="2.5" ry="2.5" style="stroke:#FFB000;stroke-width:1;" width="100" x="178.96" y="884.7788"/><text fill="#FFB000" font-family="Verdana" font-size="14" lengthAdjust="spacing" textLength="46.5186" x="205.7007" y="903.854">Nutzer</text></g><!--class Karte--><g id="elem_Karte"><rect codeLine="16" fill="#282828" height="27.0146" id="Karte" rx="2.5" ry="2.5" style="stroke:#FFB000;stroke-width:1;" width="100" x="178.96" y="758.7585"/><text fill="#FFB000" font-family="Verdana" font-size="14" lengthAdjust="spacing" textLength="37.9395" x="209.9902" y="777.8337">Karte</text></g><!--class Pin--><g id="elem_Pin"><rect codeLine="19" fill="#282828" height="69.0439" id="Pin" rx="2.5" ry="2.5" style="stroke:#FFB000;stroke-width:1;" width="100" x="75.6266" y="590.709"/><text fill="#FFB000" font-family="Verdana" font-size="14" lengthAdjust="spacing" textLength="21.1436" x="115.0549" y="609.7842">Pin</text><line style="stroke:#FFB000;stroke-width:1;" x1="76.6266" x2="174.6266" y1="617.7236" y2="617.7236"/><text fill="#FFB000" font-family="Verdana" font-size="14" lengthAdjust="spacing" textLength="17.7666" x="81.6266" y="635.7988">lat</text><text fill="#FFB000" font-family="Verdana" font-size="14" lengthAdjust="spacing" textLength="29.9209" x="81.6266" y="652.8135">long</text></g><!--class Projekt--><g id="elem_Projekt"><rect codeLine="24" fill="#282828" height="69.0439" id="Projekt" rx="2.5" ry="2.5" style="stroke:#FFB000;stroke-width:1;" width="105.8301" x="129.96" y="426.2671"/><text fill="#FFB000" font-family="Verdana" font-size="14" lengthAdjust="spacing" textLength="49.875" x="157.9375" y="445.3423">Projekt</text><line style="stroke:#FFB000;stroke-width:1;" x1="130.96" x2="234.79" y1="453.2817" y2="453.2817"/><text fill="#FFB000" font-family="Verdana" font-size="14" lengthAdjust="spacing" textLength="39.2246" x="135.96" y="471.3569">name</text><text fill="#FFB000" font-family="Verdana" font-size="14" lengthAdjust="spacing" textLength="93.8301" x="135.96" y="488.3716">beschreibung</text></g><!--class Verein--><g id="elem_Verein"><rect codeLine="29" fill="#282828" height="69.0439" id="Verein" rx="2.5" ry="2.5" style="stroke:#FFB000;stroke-width:1;" width="105.8301" x="73.6833" y="261.8252"/><text fill="#FFB000" font-family="Verdana" font-size="14" lengthAdjust="spacing" textLength="44.9258" x="104.1354" y="280.9004">Verein</text><line style="stroke:#FFB000;stroke-width:1;" x1="74.6833" x2="178.5133" y1="288.8398" y2="288.8398"/><text fill="#FFB000" font-family="Verdana" font-size="14" lengthAdjust="spacing" textLength="39.2246" x="79.6833" y="306.915">name</text><text fill="#FFB000" font-family="Verdana" font-size="14" lengthAdjust="spacing" textLength="93.8301" x="79.6833" y="323.9297">beschreibung</text></g><!--class Region--><g id="elem_Region"><rect codeLine="35" fill="#282828" height="52.0293" id="Region" rx="2.5" ry="2.5" style="stroke:#FFB000;stroke-width:1;" width="100" x="58.96" y="755.1509"/><text fill="#FFB000" font-family="Verdana" font-size="14" lengthAdjust="spacing" textLength="47.9951" x="84.9624" y="774.2261">Region</text><line style="stroke:#FFB000;stroke-width:1;" x1="59.96" x2="157.96" y1="782.1655" y2="782.1655"/><text fill="#FFB000" font-family="Verdana" font-size="14" lengthAdjust="spacing" textLength="39.2246" x="64.96" y="800.2407">name</text></g><!--class Frage--><g id="elem_Frage"><rect codeLine="39" fill="#282828" height="27.0146" id="Frage" rx="2.5" ry="2.5" style="stroke:#FFB000;stroke-width:1;" width="100" x="93.265" y="17"/><text fill="#FFB000" font-family="Verdana" font-size="14" lengthAdjust="spacing" textLength="39.4912" x="123.5194" y="36.0752">Frage</text></g><!--class Filter--><g id="elem_Filter"><rect codeLine="42" fill="#282828" height="27.0146" id="Filter" rx="2.5" ry="2.5" style="stroke:#FFB000;stroke-width:1;" width="100" x="93.265" y="139.4126"/><text fill="#FFB000" font-family="Verdana" font-size="14" lengthAdjust="spacing" textLength="35.5605" x="125.4847" y="158.4878">Filter</text></g><line style="stroke:#FFB000;stroke-width:1;" x1="228.96" x2="228.96" y1="785.7732" y2="884.7788"/><polygon fill="#FFB000" points="228.96,884.7788,232.96,875.7788,228.96,879.7788,224.96,875.7788,228.96,884.7788" style="stroke:#FFB000;stroke-width:1;"/><text fill="#FFB000" font-family="Verdana" font-size="13" lengthAdjust="spacing" textLength="38.3779" x="186.582" y="842.25">ist f&#252;r</text><text fill="#FFB000" font-family="Verdana" font-size="13" lengthAdjust="spacing" textLength="8.2646" x="231.96" y="800.843">1</text><text fill="#FFB000" font-family="Verdana" font-size="13" lengthAdjust="spacing" textLength="8.2646" x="231.96" y="880.0493">1</text><line style="stroke:#FFB000;stroke-width:1;" x1="142.2933" x2="142.2933" y1="659.7529" y2="687.5522"/><line style="stroke:#FFB000;stroke-width:1;" x1="142.2933" x2="228.96" y1="687.5522" y2="687.5522"/><line style="stroke:#FFB000;stroke-width:1;" x1="228.96" x2="228.96" y1="687.5522" y2="758.7585"/><polygon fill="#FFB000" points="228.96,758.7585,232.96,749.7585,228.96,753.7585,224.96,749.7585,228.96,758.7585" style="stroke:#FFB000;stroke-width:1;"/><text fill="#FFB000" font-family="Verdana" font-size="13" lengthAdjust="spacing" textLength="40.6377" x="233.96" y="712.6221">ist auf</text><text fill="#FFB000" font-family="Verdana" font-size="13" lengthAdjust="spacing" textLength="8.2646" x="145.2933" y="674.8228">*</text><text fill="#FFB000" font-family="Verdana" font-size="13" lengthAdjust="spacing" textLength="8.2646" x="231.96" y="754.0291">1</text><line style="stroke:#FFB000;stroke-width:1;" x1="182.875" x2="182.875" y1="495.311" y2="562.9097"/><line style="stroke:#FFB000;stroke-width:1;" x1="182.875" x2="142.2933" y1="562.9097" y2="562.9097"/><line style="stroke:#FFB000;stroke-width:1;" x1="142.2933" x2="142.2933" y1="562.9097" y2="590.709"/><polygon fill="#FFB000" points="142.2933,590.709,146.2933,581.709,142.2933,585.709,138.2933,581.709,142.2933,590.709" style="stroke:#FFB000;stroke-width:1;"/><text fill="#FFB000" font-family="Verdana" font-size="13" lengthAdjust="spacing" textLength="85.96" x="187.875" y="548.1802">angezeigt als</text><text fill="#FFB000" font-family="Verdana" font-size="13" lengthAdjust="spacing" textLength="8.2646" x="185.875" y="510.3809">1</text><text fill="#FFB000" font-family="Verdana" font-size="13" lengthAdjust="spacing" textLength="8.2646" x="145.2933" y="585.9795">1</text><line style="stroke:#FFB000;stroke-width:1;" x1="108.96" x2="108.96" y1="330.8691" y2="590.709"/><polygon fill="#FFB000" points="108.96,590.709,112.96,581.709,108.96,585.709,104.96,581.709,108.96,590.709" style="stroke:#FFB000;stroke-width:1;"/><text fill="#FFB000" font-family="Verdana" font-size="13" lengthAdjust="spacing" textLength="85.96" x="19" y="465.9592">angezeigt als</text><text fill="#FFB000" font-family="Verdana" font-size="13" lengthAdjust="spacing" textLength="8.2646" x="111.96" y="345.939">1</text><text fill="#FFB000" font-family="Verdana" font-size="13" lengthAdjust="spacing" textLength="8.2646" x="111.96" y="585.9795">1</text><line style="stroke:#FFB000;stroke-width:1;" x1="144.2367" x2="144.2367" y1="330.8691" y2="358.6685"/><line style="stroke:#FFB000;stroke-width:1;" x1="144.2367" x2="165.2367" y1="358.6685" y2="358.6685"/><line style="stroke:#FFB000;stroke-width:1;" x1="165.2367" x2="165.2367" y1="358.6685" y2="426.2671"/><polygon fill="#FFB000" points="165.2367,426.2671,169.2367,417.2671,165.2367,421.2671,161.2367,417.2671,165.2367,426.2671" style="stroke:#FFB000;stroke-width:1;"/><text fill="#FFB000" font-family="Verdana" font-size="13" lengthAdjust="spacing" textLength="21.1567" x="140.0799" y="383.7383">hat</text><text fill="#FFB000" font-family="Verdana" font-size="13" lengthAdjust="spacing" textLength="8.2646" x="147.2367" y="345.939">1</text><text fill="#FFB000" font-family="Verdana" font-size="13" lengthAdjust="spacing" textLength="8.2646" x="168.2367" y="421.5376">*</text><line style="stroke:#FFB000;stroke-width:1;" x1="108.96" x2="108.96" y1="659.7529" y2="755.1509"/><polygon fill="#FFB000" points="108.96,755.1509,112.96,746.1509,108.96,750.1509,104.96,746.1509,108.96,755.1509" style="stroke:#FFB000;stroke-width:1;"/><text fill="#FFB000" font-family="Verdana" font-size="13" lengthAdjust="spacing" textLength="53.0093" x="51.9507" y="712.6221">hat eine</text><text fill="#FFB000" font-family="Verdana" font-size="13" lengthAdjust="spacing" textLength="8.2646" x="111.96" y="674.8228">1</text><text fill="#FFB000" font-family="Verdana" font-size="13" lengthAdjust="spacing" textLength="8.2646" x="111.96" y="750.4214">1</text><line style="stroke:#FFB000;stroke-width:1;" x1="143.265" x2="143.265" y1="44.0146" y2="139.4126"/><polygon fill="#FFB000" points="143.265,139.4126,147.265,130.4126,143.265,134.4126,139.265,130.4126,143.265,139.4126" style="stroke:#FFB000;stroke-width:1;"/><text fill="#FFB000" font-family="Verdana" font-size="13" lengthAdjust="spacing" textLength="31.5923" x="107.6727" y="96.8838">setzt</text><text fill="#FFB000" font-family="Verdana" font-size="13" lengthAdjust="spacing" textLength="8.2646" x="146.265" y="59.0845">*</text><text fill="#FFB000" font-family="Verdana" font-size="13" lengthAdjust="spacing" textLength="8.2646" x="146.265" y="134.6831">1</text><line style="stroke:#FFB000;stroke-width:1;" x1="159.9316" x2="159.9316" y1="166.4272" y2="194.2266"/><line style="stroke:#FFB000;stroke-width:1;" x1="159.9316" x2="199.5133" y1="194.2266" y2="194.2266"/><line style="stroke:#FFB000;stroke-width:1;" x1="199.5133" x2="199.5133" y1="194.2266" y2="398.4678"/><line style="stroke:#FFB000;stroke-width:1;" x1="199.5133" x2="200.5133" y1="398.4678" y2="398.4678"/><line style="stroke:#FFB000;stroke-width:1;" x1="200.5133" x2="200.5133" y1="398.4678" y2="426.2671"/><polygon fill="#FFB000" points="200.5133,426.2671,204.5133,417.2671,200.5133,421.2671,196.5133,417.2671,200.5133,426.2671" style="stroke:#FFB000;stroke-width:1;"/><text fill="#FFB000" font-family="Verdana" font-size="13" lengthAdjust="spacing" textLength="35.2422" x="204.5133" y="301.5173">filtert</text><text fill="#FFB000" font-family="Verdana" font-size="13" lengthAdjust="spacing" textLength="8.2646" x="162.9316" y="181.4971">1</text><text fill="#FFB000" font-family="Verdana" font-size="13" lengthAdjust="spacing" textLength="8.2646" x="203.5133" y="421.5376">*</text><line style="stroke:#FFB000;stroke-width:1;" x1="126.5983" x2="126.5983" y1="166.4272" y2="261.8252"/><polygon fill="#FFB000" points="126.5983,261.8252,130.5983,252.8252,126.5983,256.8252,122.5983,252.8252,126.5983,261.8252" style="stroke:#FFB000;stroke-width:1;"/><text fill="#FFB000" font-family="Verdana" font-size="13" lengthAdjust="spacing" textLength="35.2422" x="87.3561" y="219.2964">filtert</text><text fill="#FFB000" font-family="Verdana" font-size="13" lengthAdjust="spacing" textLength="8.2646" x="129.5983" y="181.4971">1</text><text fill="#FFB000" font-family="Verdana" font-size="13" lengthAdjust="spacing" textLength="8.2646" x="129.5983" y="257.0957">*</text><!--SRC=[XL9DJyCm33qtly8RDwHA6ySTa61IBqW8SO1prdfjQ3wgn1NQVXit_XXUioKRJE9Inyz-xzbMYnbrQ11gJwKq6_IY2BsoW_JIm8FtxhDobjPEEmytLVMuM2n4qQc66ShN6ey9ce5sO90wruGBJ19vjHa9Wn35RF2oDHAqtBcH07KlplsiQp3W07S7amnxQVihi55shMK8xwgX3fPS54Lz0E1vf3rlSagVf2SUT0emNywXBE-d6FjMe0B1zlihCrwK5GL_OCMZKdewsyRt_3QBHDae8iTjrl3k0_i3EJwunKg3v_a6GzrvvFDCmaVyVC9eB6sBUrGj6-YG3DwGgJndZ4a-fPVgH_W_yJzzl6aUkEDZdEnViLMExMFCs_qoIMNc0YjZ4gZuNs3252ukMYbDw9aIaFRPCC9CYENh4swd8btjIfSvDVq0]--></g></svg>