<svg xmlns="http://www.w3.org/2000/svg" xmlns:xlink="http://www.w3.org/1999/xlink" contentStyleType="text/css" height="870px" preserveAspectRatio="none" style="width:504px;height:870px;background:#282828;" version="1.1" viewBox="0 0 504 870" width="504px" zoomAndPan="magnify"><defs/><g><rect fill="#282828" height="870" style="stroke:none;stroke-width:1.0;" width="504" x="0" y="0"/><!--class Standort--><g id="elem_Standort"><rect codeLine="14" fill="#282828" height="69.0439" id="Standort" rx="2.5" ry="2.5" style="stroke:#FFB000;stroke-width:1.0;" width="100" x="144.7145" y="794.1362"/><text fill="#FFB000" font-family="Verdana" font-size="14" lengthAdjust="spacing" textLength="61.0654" x="164.1818" y="813.2114">Standort</text><line style="stroke:#FFB000;stroke-width:1.0;" x1="145.7145" x2="243.7145" y1="821.1509" y2="821.1509"/><text fill="#FFB000" font-family="Verdana" font-size="14" lengthAdjust="spacing" textLength="17.7666" x="150.7145" y="839.2261">lat</text><text fill="#FFB000" font-family="Verdana" font-size="14" lengthAdjust="spacing" textLength="29.9209" x="150.7145" y="856.2407">long</text></g><!--class Karte--><g id="elem_Karte"><rect codeLine="36" fill="#282828" height="27.0146" id="Karte" rx="2.5" ry="2.5" style="stroke:#FFB000;stroke-width:1.0;" width="100" x="115.1611" y="332.6392"/><text fill="#FFB000" font-family="Verdana" font-size="14" lengthAdjust="spacing" textLength="37.9395" x="146.1914" y="351.7144">Karte</text></g><!--class Projekt--><g id="elem_Projekt"><rect codeLine="19" fill="#282828" height="69.0439" id="Projekt" rx="2.5" ry="2.5" style="stroke:#FFB000;stroke-width:1.0;" width="105.8301" x="284.6175" y="619.6943"/><text fill="#FFB000" font-family="Verdana" font-size="14" lengthAdjust="spacing" textLength="49.875" x="312.5951" y="638.7695">Projekt</text><line style="stroke:#FFB000;stroke-width:1.0;" x1="285.6175" x2="389.4476" y1="646.709" y2="646.709"/><text fill="#FFB000" font-family="Verdana" font-size="14" lengthAdjust="spacing" textLength="39.2246" x="290.6175" y="664.7842">name</text><text fill="#FFB000" font-family="Verdana" font-size="14" lengthAdjust="spacing" textLength="93.8301" x="290.6175" y="681.7988">beschreibung</text></g><!--class Verein--><g id="elem_Verein"><rect codeLine="24" fill="#282828" height="69.0439" id="Verein" rx="2.5" ry="2.5" style="stroke:#FFB000;stroke-width:1.0;" width="105.8301" x="365.1403" y="475.0518"/><text fill="#FFB000" font-family="Verdana" font-size="14" lengthAdjust="spacing" textLength="44.9258" x="395.5924" y="494.127">Verein</text><line style="stroke:#FFB000;stroke-width:1.0;" x1="366.1403" x2="469.9704" y1="502.0664" y2="502.0664"/><text fill="#FFB000" font-family="Verdana" font-size="14" lengthAdjust="spacing" textLength="39.2246" x="371.1403" y="520.1416">name</text><text fill="#FFB000" font-family="Verdana" font-size="14" lengthAdjust="spacing" textLength="93.8301" x="371.1403" y="537.1563">beschreibung</text></g><!--class Region--><g id="elem_Region"><rect codeLine="31" fill="#282828" height="69.0439" id="Region" rx="2.5" ry="2.5" style="stroke:#FFB000;stroke-width:1.0;" width="105.8301" x="68.8844" y="475.0518"/><text fill="#FFB000" font-family="Verdana" font-size="14" lengthAdjust="spacing" textLength="47.9951" x="97.8019" y="494.127">Region</text><line style="stroke:#FFB000;stroke-width:1.0;" x1="69.8844" x2="173.7145" y1="502.0664" y2="502.0664"/><text fill="#FFB000" font-family="Verdana" font-size="14" lengthAdjust="spacing" textLength="39.2246" x="74.8844" y="520.1416">name</text><text fill="#FFB000" font-family="Verdana" font-size="14" lengthAdjust="spacing" textLength="93.8301" x="74.8844" y="537.1563">beschreibung</text></g><!--class Frage--><g id="elem_Frage"><rect codeLine="42" fill="#282828" height="52.0293" id="Frage" rx="2.5" ry="2.5" style="stroke:#FFB000;stroke-width:1.0;" width="100" x="227.5326" y="169.4126"/><text fill="#FFB000" font-family="Verdana" font-size="14" lengthAdjust="spacing" textLength="39.4912" x="257.7869" y="188.4878">Frage</text><line style="stroke:#FFB000;stroke-width:1.0;" x1="228.5326" x2="326.5326" y1="196.4272" y2="196.4272"/><text fill="#FFB000" font-family="Verdana" font-size="14" lengthAdjust="spacing" textLength="27.6582" x="233.5326" y="214.5024">text</text></g><!--class Nutzer--><g id="elem_Nutzer"><rect codeLine="47" fill="#282828" height="27.0146" id="Nutzer" rx="2.5" ry="2.5" style="stroke:#FFB000;stroke-width:1.0;" width="100" x="87.4945" y="17"/><text fill="#FFB000" font-family="Verdana" font-size="14" lengthAdjust="spacing" textLength="46.5186" x="114.2352" y="36.0752">Nutzer</text></g><line style="stroke:#FFB000;stroke-width:1.0;" x1="155.1611" x2="155.1611" y1="359.6538" y2="407.4531"/><line style="stroke:#FFB000;stroke-width:1.0;" x1="155.1611" x2="184.7145" y1="407.4531" y2="407.4531"/><line style="stroke:#FFB000;stroke-width:1.0;" x1="184.7145" x2="184.7145" y1="407.4531" y2="794.1362"/><polygon fill="#FFB000" points="184.7145,794.1362,188.7145,785.1362,184.7145,789.1362,180.7145,785.1362,184.7145,794.1362" style="stroke:#FFB000;stroke-width:1.0;"/><line style="stroke:#FFB000;stroke-width:1.0;" x1="337.5326" x2="337.5326" y1="688.7383" y2="756.3369"/><line style="stroke:#FFB000;stroke-width:1.0;" x1="337.5326" x2="204.7145" y1="756.3369" y2="756.3369"/><line style="stroke:#FFB000;stroke-width:1.0;" x1="204.7145" x2="204.7145" y1="756.3369" y2="794.1362"/><polygon fill="#FFB000" points="204.7145,794.1362,208.7145,785.1362,204.7145,789.1362,200.7145,785.1362,204.7145,794.1362" style="stroke:#FFB000;stroke-width:1.0;"/><text fill="#FFB000" font-family="Verdana" font-size="13" lengthAdjust="spacing" textLength="54.5898" x="278.9427" y="741.6074">standort</text><text fill="#FFB000" font-family="Verdana" font-size="13" lengthAdjust="spacing" textLength="8.2646" x="340.5326" y="703.8081">*</text><text fill="#FFB000" font-family="Verdana" font-size="13" lengthAdjust="spacing" textLength="8.2646" x="207.7145" y="789.4067">*</text><line style="stroke:#FFB000;stroke-width:1.0;" x1="435.6937" x2="435.6937" y1="544.0957" y2="766.3369"/><line style="stroke:#FFB000;stroke-width:1.0;" x1="435.6937" x2="224.7145" y1="766.3369" y2="766.3369"/><line style="stroke:#FFB000;stroke-width:1.0;" x1="224.7145" x2="224.7145" y1="766.3369" y2="794.1362"/><polygon fill="#FFB000" points="224.7145,794.1362,228.7145,785.1362,224.7145,789.1362,220.7145,785.1362,224.7145,794.1362" style="stroke:#FFB000;stroke-width:1.0;"/><text fill="#FFB000" font-family="Verdana" font-size="13" lengthAdjust="spacing" textLength="54.5898" x="440.6937" y="659.3865">standort</text><text fill="#FFB000" font-family="Verdana" font-size="13" lengthAdjust="spacing" textLength="8.2646" x="438.6937" y="559.1655">*</text><text fill="#FFB000" font-family="Verdana" font-size="13" lengthAdjust="spacing" textLength="8.2646" x="227.7145" y="789.4067">*</text><line style="stroke:#FFB000;stroke-width:1.0;" x1="400.417" x2="400.417" y1="544.0957" y2="591.895"/><line style="stroke:#FFB000;stroke-width:1.0;" x1="400.417" x2="363.9901" y1="591.895" y2="591.895"/><line style="stroke:#FFB000;stroke-width:1.0;" x1="363.9901" x2="363.9901" y1="591.895" y2="619.6943"/><polygon fill="#FFB000" points="400.417,544.0957,396.417,550.0957,400.417,556.0957,404.417,550.0957,400.417,544.0957" style="stroke:#FFB000;stroke-width:1.0;"/><text fill="#FFB000" font-family="Verdana" font-size="13" lengthAdjust="spacing" textLength="8.2646" x="403.417" y="559.1655">1</text><text fill="#FFB000" font-family="Verdana" font-size="13" lengthAdjust="spacing" textLength="8.2646" x="366.9901" y="614.9648">*</text><line style="stroke:#FFB000;stroke-width:1.0;" x1="121.7995" x2="121.7995" y1="544.0957" y2="756.3369"/><line style="stroke:#FFB000;stroke-width:1.0;" x1="121.7995" x2="164.7145" y1="756.3369" y2="756.3369"/><line style="stroke:#FFB000;stroke-width:1.0;" x1="164.7145" x2="164.7145" y1="756.3369" y2="794.1362"/><polygon fill="#FFB000" points="164.7145,794.1362,168.7145,785.1362,164.7145,789.1362,160.7145,785.1362,164.7145,794.1362" style="stroke:#FFB000;stroke-width:1.0;"/><text fill="#FFB000" font-family="Verdana" font-size="13" lengthAdjust="spacing" textLength="54.5898" x="63.2096" y="659.3865">standort</text><text fill="#FFB000" font-family="Verdana" font-size="13" lengthAdjust="spacing" textLength="8.2646" x="124.7995" y="559.1655">*</text><text fill="#FFB000" font-family="Verdana" font-size="13" lengthAdjust="spacing" textLength="8.2646" x="167.7145" y="789.4067">*</text><line style="stroke:#FFB000;stroke-width:1.0;" x1="195.1611" x2="195.1611" y1="359.6538" y2="387.4531"/><line style="stroke:#FFB000;stroke-width:1.0;" x1="195.1611" x2="322.651" y1="387.4531" y2="387.4531"/><line style="stroke:#FFB000;stroke-width:1.0;" x1="322.651" x2="322.651" y1="387.4531" y2="447.2524"/><line style="stroke:#FFB000;stroke-width:1.0;" x1="322.651" x2="400.417" y1="447.2524" y2="447.2524"/><line style="stroke:#FFB000;stroke-width:1.0;" x1="400.417" x2="400.417" y1="447.2524" y2="475.0518"/><polygon fill="#FFB000" points="400.417,475.0518,404.417,466.0518,400.417,470.0518,396.417,466.0518,400.417,475.0518" style="stroke:#FFB000;stroke-width:1.0;"/><text fill="#FFB000" font-family="Verdana" font-size="13" lengthAdjust="spacing" textLength="51.9683" x="266.6828" y="432.5229">zeigt an</text><text fill="#FFB000" font-family="Verdana" font-size="13" lengthAdjust="spacing" textLength="8.2646" x="198.1611" y="374.7236">1</text><text fill="#FFB000" font-family="Verdana" font-size="13" lengthAdjust="spacing" textLength="8.2646" x="403.417" y="470.3223">*</text><line style="stroke:#FFB000;stroke-width:1.0;" x1="175.1611" x2="175.1611" y1="359.6538" y2="397.4531"/><line style="stroke:#FFB000;stroke-width:1.0;" x1="175.1611" x2="253.6828" y1="397.4531" y2="397.4531"/><line style="stroke:#FFB000;stroke-width:1.0;" x1="253.6828" x2="253.6828" y1="397.4531" y2="591.895"/><line style="stroke:#FFB000;stroke-width:1.0;" x1="253.6828" x2="311.075" y1="591.895" y2="591.895"/><line style="stroke:#FFB000;stroke-width:1.0;" x1="311.075" x2="311.075" y1="591.895" y2="619.6943"/><polygon fill="#FFB000" points="311.075,619.6943,315.075,610.6943,311.075,614.6943,307.075,610.6943,311.075,619.6943" style="stroke:#FFB000;stroke-width:1.0;"/><text fill="#FFB000" font-family="Verdana" font-size="13" lengthAdjust="spacing" textLength="51.9683" x="197.7145" y="514.7439">zeigt an</text><text fill="#FFB000" font-family="Verdana" font-size="13" lengthAdjust="spacing" textLength="8.2646" x="178.1611" y="374.7236">1</text><text fill="#FFB000" font-family="Verdana" font-size="13" lengthAdjust="spacing" textLength="8.2646" x="314.075" y="614.9648">*</text><line style="stroke:#FFB000;stroke-width:1.0;" x1="135.1611" x2="135.1611" y1="359.6538" y2="447.2524"/><line style="stroke:#FFB000;stroke-width:1.0;" x1="135.1611" x2="139.4378" y1="447.2524" y2="447.2524"/><line style="stroke:#FFB000;stroke-width:1.0;" x1="139.4378" x2="139.4378" y1="447.2524" y2="475.0518"/><polygon fill="#FFB000" points="135.1611,359.6538,131.1611,365.6538,135.1611,371.6538,139.1611,365.6538,135.1611,359.6538" style="stroke:#FFB000;stroke-width:1.0;"/><text fill="#FFB000" font-family="Verdana" font-size="13" lengthAdjust="spacing" textLength="8.2646" x="138.1611" y="374.7236">1</text><text fill="#FFB000" font-family="Verdana" font-size="13" lengthAdjust="spacing" textLength="8.2646" x="142.4378" y="470.3223">*</text><line style="stroke:#FFB000;stroke-width:1.0;" x1="277.5326" x2="277.5326" y1="221.4419" y2="304.8398"/><line style="stroke:#FFB000;stroke-width:1.0;" x1="277.5326" x2="181.8278" y1="304.8398" y2="304.8398"/><line style="stroke:#FFB000;stroke-width:1.0;" x1="181.8278" x2="181.8278" y1="304.8398" y2="332.6392"/><polygon fill="#FFB000" points="181.8278,332.6392,185.8278,323.6392,181.8278,327.6392,177.8278,323.6392,181.8278,332.6392" style="stroke:#FFB000;stroke-width:1.0;"/><text fill="#FFB000" font-family="Verdana" font-size="13" lengthAdjust="spacing" textLength="35.2422" x="238.2904" y="282.2107">filtert</text><text fill="#FFB000" font-family="Verdana" font-size="13" lengthAdjust="spacing" textLength="8.2646" x="280.5326" y="236.5117">*</text><text fill="#FFB000" font-family="Verdana" font-size="13" lengthAdjust="spacing" textLength="8.2646" x="184.8278" y="327.9097">1</text><line style="stroke:#FFB000;stroke-width:1.0;" x1="120.8278" x2="120.8278" y1="44.0146" y2="101.814"/><line style="stroke:#FFB000;stroke-width:1.0;" x1="120.8278" x2="148.4945" y1="101.814" y2="101.814"/><line style="stroke:#FFB000;stroke-width:1.0;" x1="148.4945" x2="148.4945" y1="101.814" y2="332.6392"/><polygon fill="#FFB000" points="148.4945,332.6392,152.4945,323.6392,148.4945,327.6392,144.4945,323.6392,148.4945,332.6392" style="stroke:#FFB000;stroke-width:1.0;"/><text fill="#FFB000" font-family="Verdana" font-size="13" lengthAdjust="spacing" textLength="52.0381" x="153.4945" y="200.5974">sieht an</text><text fill="#FFB000" font-family="Verdana" font-size="13" lengthAdjust="spacing" textLength="8.2646" x="123.8278" y="59.0845">*</text><text fill="#FFB000" font-family="Verdana" font-size="13" lengthAdjust="spacing" textLength="8.2646" x="151.4945" y="327.9097">*</text><line style="stroke:#FFB000;stroke-width:1.0;" x1="170.8278" x2="170.8278" y1="44.0146" y2="71.814"/><line style="stroke:#FFB000;stroke-width:1.0;" x1="170.8278" x2="435.6937" y1="71.814" y2="71.814"/><line style="stroke:#FFB000;stroke-width:1.0;" x1="435.6937" x2="435.6937" y1="71.814" y2="475.0518"/><polygon fill="#FFB000" points="435.6937,475.0518,439.6937,466.0518,435.6937,470.0518,431.6937,466.0518,435.6937,475.0518" style="stroke:#FFB000;stroke-width:1.0;"/><text fill="#FFB000" font-family="Verdana" font-size="13" lengthAdjust="spacing" textLength="81.1611" x="350.5326" y="274.311">sieht an und</text><text fill="#FFB000" font-family="Verdana" font-size="13" lengthAdjust="spacing" textLength="81.1104" x="350.5579" y="290.1104">bookmarked</text><text fill="#FFB000" font-family="Verdana" font-size="13" lengthAdjust="spacing" textLength="8.2646" x="173.8278" y="59.0845">*</text><text fill="#FFB000" font-family="Verdana" font-size="13" lengthAdjust="spacing" textLength="8.2646" x="438.6937" y="470.3223">*</text><line style="stroke:#FFB000;stroke-width:1.0;" x1="154.1611" x2="154.1611" y1="44.0146" y2="81.814"/><line style="stroke:#FFB000;stroke-width:1.0;" x1="154.1611" x2="337.5326" y1="81.814" y2="81.814"/><line style="stroke:#FFB000;stroke-width:1.0;" x1="337.5326" x2="337.5326" y1="81.814" y2="619.6943"/><polygon fill="#FFB000" points="337.5326,619.6943,341.5326,610.6943,337.5326,614.6943,333.5326,610.6943,337.5326,619.6943" style="stroke:#FFB000;stroke-width:1.0;"/><text fill="#FFB000" font-family="Verdana" font-size="13" lengthAdjust="spacing" textLength="81.1611" x="252.3714" y="343.417">sieht an und</text><text fill="#FFB000" font-family="Verdana" font-size="13" lengthAdjust="spacing" textLength="81.1104" x="252.3968" y="359.2163">bookmarked</text><text fill="#FFB000" font-family="Verdana" font-size="13" lengthAdjust="spacing" textLength="8.2646" x="157.1611" y="59.0845">*</text><text fill="#FFB000" font-family="Verdana" font-size="13" lengthAdjust="spacing" textLength="8.2646" x="340.5326" y="614.9648">*</text><line style="stroke:#FFB000;stroke-width:1.0;" x1="104.1611" x2="104.1611" y1="44.0146" y2="475.0518"/><polygon fill="#FFB000" points="104.1611,475.0518,108.1611,466.0518,104.1611,470.0518,100.1611,466.0518,104.1611,475.0518" style="stroke:#FFB000;stroke-width:1.0;"/><text fill="#FFB000" font-family="Verdana" font-size="13" lengthAdjust="spacing" textLength="81.1611" x="19" y="274.311">sieht an und</text><text fill="#FFB000" font-family="Verdana" font-size="13" lengthAdjust="spacing" textLength="81.1104" x="19.0254" y="290.1104">bookmarked</text><text fill="#FFB000" font-family="Verdana" font-size="13" lengthAdjust="spacing" textLength="8.2646" x="107.1611" y="59.0845">*</text><text fill="#FFB000" font-family="Verdana" font-size="13" lengthAdjust="spacing" textLength="8.2646" x="107.1611" y="470.3223">*</text><line style="stroke:#FFB000;stroke-width:1.0;" x1="137.4945" x2="137.4945" y1="44.0146" y2="91.814"/><line style="stroke:#FFB000;stroke-width:1.0;" x1="137.4945" x2="277.5326" y1="91.814" y2="91.814"/><line style="stroke:#FFB000;stroke-width:1.0;" x1="277.5326" x2="277.5326" y1="91.814" y2="169.4126"/><polygon fill="#FFB000" points="277.5326,169.4126,281.5326,160.4126,277.5326,164.4126,273.5326,160.4126,277.5326,169.4126" style="stroke:#FFB000;stroke-width:1.0;"/><text fill="#FFB000" font-family="Verdana" font-size="13" lengthAdjust="spacing" textLength="79.0664" x="194.4661" y="126.8838">beantwortet</text><text fill="#FFB000" font-family="Verdana" font-size="13" lengthAdjust="spacing" textLength="8.2646" x="140.4945" y="59.0845">*</text><text fill="#FFB000" font-family="Verdana" font-size="13" lengthAdjust="spacing" textLength="8.2646" x="280.5326" y="164.6831">*</text><!--SRC=[bLAnJiCm49tjht3BXXIfPUo019Mo82444YmiJd8a9h4TsHULzkknazXfgaZGwNpdU-_TEvkii089B3UOS9c1eSJMGhNSSCaUZD67L2lSwqORTfEcZvlDXf9A50uXJDx0c81iySWaOAKBEwjnH2Eo3i5IIbQjuQNahE57tI63fgRdUaeNOA5bTrvaAXkkweMo56hVS6i_H84LsxfBId9VO6_8LQ4DKX9ERESqBtAjIagUk45WIN8_WGBBYz7VK3lGU70OnIMSvndOl3BW_7ckK5_Vhdj67yy4xQN0EpYeecI8aJwcS_Qn_3TvQDoksMsIz8t1Ib1-XL9efpp4g1pJkV9O_g-jVgKqhDQF4L3HsGb4YOohfQPfkqjTmT7e86Ycxbyv0trmI8GVFy-GnhaTV23QiI_H8FWF4WYUEpovpq_9S9YP3I0he1hcMMYAta8NwrJngJAjQybD3SKYQZ9x5Im-r5Mei9qCkCA3Up90-Wi0]--></g></svg>