<svg xmlns="http://www.w3.org/2000/svg" xmlns:xlink="http://www.w3.org/1999/xlink" contentStyleType="text/css" height="910px" preserveAspectRatio="none" style="width:436px;height:910px;background:#282828;" version="1.1" viewBox="0 0 436 910" width="436px" zoomAndPan="magnify"><defs/><g><rect fill="#282828" height="910" style="stroke:none;stroke-width:1.0;" width="436" x="0" y="0"/><!--class Nutzer--><g id="elem_Nutzer"><rect codeLine="14" fill="#282828" height="27.0146" id="Nutzer" rx="2.5" ry="2.5" style="stroke:#FFB000;stroke-width:1.0;" width="100" x="223.835" y="877.5635"/><text fill="#FFB000" font-family="Verdana" font-size="14" lengthAdjust="spacing" textLength="46.5186" x="250.5757" y="896.6387">Nutzer</text></g><!--class Karte--><g id="elem_Karte"><rect codeLine="16" fill="#282828" height="27.0146" id="Karte" rx="2.5" ry="2.5" style="stroke:#FFB000;stroke-width:1.0;" width="100" x="223.835" y="755.1509"/><text fill="#FFB000" font-family="Verdana" font-size="14" lengthAdjust="spacing" textLength="37.9395" x="254.8652" y="774.2261">Karte</text></g><!--class Pin--><g id="elem_Pin"><rect codeLine="19" fill="#282828" height="69.0439" id="Pin" rx="2.5" ry="2.5" style="stroke:#FFB000;stroke-width:1.0;" width="100" x="223.835" y="590.709"/><text fill="#FFB000" font-family="Verdana" font-size="14" lengthAdjust="spacing" textLength="21.1436" x="263.2632" y="609.7842">Pin</text><line style="stroke:#FFB000;stroke-width:1.0;" x1="224.835" x2="322.835" y1="617.7236" y2="617.7236"/><text fill="#FFB000" font-family="Verdana" font-size="14" lengthAdjust="spacing" textLength="17.7666" x="229.835" y="635.7988">lat</text><text fill="#FFB000" font-family="Verdana" font-size="14" lengthAdjust="spacing" textLength="29.9209" x="229.835" y="652.8135">long</text></g><!--class Projekt--><g id="elem_Projekt"><rect codeLine="24" fill="#282828" height="69.0439" id="Projekt" rx="2.5" ry="2.5" style="stroke:#FFB000;stroke-width:1.0;" width="105.8301" x="323.8799" y="426.2671"/><text fill="#FFB000" font-family="Verdana" font-size="14" lengthAdjust="spacing" textLength="49.875" x="351.8574" y="445.3423">Projekt</text><line style="stroke:#FFB000;stroke-width:1.0;" x1="324.8799" x2="428.71" y1="453.2817" y2="453.2817"/><text fill="#FFB000" font-family="Verdana" font-size="14" lengthAdjust="spacing" textLength="39.2246" x="329.8799" y="471.3569">name</text><text fill="#FFB000" font-family="Verdana" font-size="14" lengthAdjust="spacing" textLength="93.8301" x="329.8799" y="488.3716">beschreibung</text></g><!--class Verein--><g id="elem_Verein"><rect codeLine="29" fill="#282828" height="69.0439" id="Verein" rx="2.5" ry="2.5" style="stroke:#FFB000;stroke-width:1.0;" width="105.8301" x="238.5583" y="261.8252"/><text fill="#FFB000" font-family="Verdana" font-size="14" lengthAdjust="spacing" textLength="44.9258" x="269.0104" y="280.9004">Verein</text><line style="stroke:#FFB000;stroke-width:1.0;" x1="239.5583" x2="343.3883" y1="288.8398" y2="288.8398"/><text fill="#FFB000" font-family="Verdana" font-size="14" lengthAdjust="spacing" textLength="39.2246" x="244.5583" y="306.915">name</text><text fill="#FFB000" font-family="Verdana" font-size="14" lengthAdjust="spacing" textLength="93.8301" x="244.5583" y="323.9297">beschreibung</text></g><!--class Region--><g id="elem_Region"><rect codeLine="35" fill="#282828" height="69.0439" id="Region" rx="2.5" ry="2.5" style="stroke:#FFB000;stroke-width:1.0;" width="105.8301" x="56.0449" y="426.2671"/><text fill="#FFB000" font-family="Verdana" font-size="14" lengthAdjust="spacing" textLength="47.9951" x="84.9624" y="445.3423">Region</text><line style="stroke:#FFB000;stroke-width:1.0;" x1="57.0449" x2="160.875" y1="453.2817" y2="453.2817"/><text fill="#FFB000" font-family="Verdana" font-size="14" lengthAdjust="spacing" textLength="39.2246" x="62.0449" y="471.3569">name</text><text fill="#FFB000" font-family="Verdana" font-size="14" lengthAdjust="spacing" textLength="93.8301" x="62.0449" y="488.3716">beschreibung</text></g><!--class Frage--><g id="elem_Frage"><rect codeLine="40" fill="#282828" height="27.0146" id="Frage" rx="2.5" ry="2.5" style="stroke:#FFB000;stroke-width:1.0;" width="100" x="258.14" y="17"/><text fill="#FFB000" font-family="Verdana" font-size="14" lengthAdjust="spacing" textLength="39.4912" x="288.3944" y="36.0752">Frage</text></g><!--class Filter--><g id="elem_Filter"><rect codeLine="43" fill="#282828" height="27.0146" id="Filter" rx="2.5" ry="2.5" style="stroke:#FFB000;stroke-width:1.0;" width="100" x="258.14" y="139.4126"/><text fill="#FFB000" font-family="Verdana" font-size="14" lengthAdjust="spacing" textLength="35.5605" x="290.3597" y="158.4878">Filter</text></g><line style="stroke:#FFB000;stroke-width:1.0;" x1="273.835" x2="273.835" y1="782.1655" y2="877.5635"/><polygon fill="#FFB000" points="273.835,877.5635,277.835,868.5635,273.835,872.5635,269.835,868.5635,273.835,877.5635" style="stroke:#FFB000;stroke-width:1.0;"/><text fill="#FFB000" font-family="Verdana" font-size="13" lengthAdjust="spacing" textLength="38.3779" x="231.457" y="835.0347">ist f&#252;r</text><text fill="#FFB000" font-family="Verdana" font-size="13" lengthAdjust="spacing" textLength="8.2646" x="276.835" y="797.2354">1</text><text fill="#FFB000" font-family="Verdana" font-size="13" lengthAdjust="spacing" textLength="8.2646" x="276.835" y="872.834">1</text><line style="stroke:#FFB000;stroke-width:1.0;" x1="273.835" x2="273.835" y1="659.7529" y2="755.1509"/><polygon fill="#FFB000" points="273.835,755.1509,277.835,746.1509,273.835,750.1509,269.835,746.1509,273.835,755.1509" style="stroke:#FFB000;stroke-width:1.0;"/><text fill="#FFB000" font-family="Verdana" font-size="13" lengthAdjust="spacing" textLength="40.6377" x="229.1973" y="712.6221">ist auf</text><text fill="#FFB000" font-family="Verdana" font-size="13" lengthAdjust="spacing" textLength="8.2646" x="276.835" y="674.8228">*</text><text fill="#FFB000" font-family="Verdana" font-size="13" lengthAdjust="spacing" textLength="8.2646" x="276.835" y="750.4214">1</text><line style="stroke:#FFB000;stroke-width:1.0;" x1="376.7949" x2="376.7949" y1="495.311" y2="562.9097"/><line style="stroke:#FFB000;stroke-width:1.0;" x1="376.7949" x2="298.835" y1="562.9097" y2="562.9097"/><line style="stroke:#FFB000;stroke-width:1.0;" x1="298.835" x2="298.835" y1="562.9097" y2="590.709"/><polygon fill="#FFB000" points="298.835,590.709,302.835,581.709,298.835,585.709,294.835,581.709,298.835,590.709" style="stroke:#FFB000;stroke-width:1.0;"/><text fill="#FFB000" font-family="Verdana" font-size="13" lengthAdjust="spacing" textLength="85.96" x="286.835" y="548.1802">angezeigt als</text><text fill="#FFB000" font-family="Verdana" font-size="13" lengthAdjust="spacing" textLength="8.2646" x="379.7949" y="510.3809">1</text><text fill="#FFB000" font-family="Verdana" font-size="13" lengthAdjust="spacing" textLength="8.2646" x="301.835" y="585.9795">1</text><line style="stroke:#FFB000;stroke-width:1.0;" x1="273.835" x2="273.835" y1="330.8691" y2="590.709"/><polygon fill="#FFB000" points="273.835,590.709,277.835,581.709,273.835,585.709,269.835,581.709,273.835,590.709" style="stroke:#FFB000;stroke-width:1.0;"/><text fill="#FFB000" font-family="Verdana" font-size="13" lengthAdjust="spacing" textLength="85.96" x="183.875" y="465.9592">angezeigt als</text><text fill="#FFB000" font-family="Verdana" font-size="13" lengthAdjust="spacing" textLength="8.2646" x="276.835" y="345.939">1</text><text fill="#FFB000" font-family="Verdana" font-size="13" lengthAdjust="spacing" textLength="8.2646" x="276.835" y="585.9795">1</text><line style="stroke:#FFB000;stroke-width:1.0;" x1="309.1117" x2="309.1117" y1="330.8691" y2="358.6685"/><line style="stroke:#FFB000;stroke-width:1.0;" x1="309.1117" x2="359.1566" y1="358.6685" y2="358.6685"/><line style="stroke:#FFB000;stroke-width:1.0;" x1="359.1566" x2="359.1566" y1="358.6685" y2="426.2671"/><polygon fill="#FFB000" points="359.1566,426.2671,363.1566,417.2671,359.1566,421.2671,355.1566,417.2671,359.1566,426.2671" style="stroke:#FFB000;stroke-width:1.0;"/><text fill="#FFB000" font-family="Verdana" font-size="13" lengthAdjust="spacing" textLength="21.1567" x="333.9998" y="383.7383">hat</text><text fill="#FFB000" font-family="Verdana" font-size="13" lengthAdjust="spacing" textLength="8.2646" x="312.1117" y="345.939">1</text><text fill="#FFB000" font-family="Verdana" font-size="13" lengthAdjust="spacing" textLength="8.2646" x="362.1566" y="421.5376">*</text><line style="stroke:#FFB000;stroke-width:1.0;" x1="108.96" x2="108.96" y1="495.311" y2="562.9097"/><line style="stroke:#FFB000;stroke-width:1.0;" x1="108.96" x2="248.835" y1="562.9097" y2="562.9097"/><line style="stroke:#FFB000;stroke-width:1.0;" x1="248.835" x2="248.835" y1="562.9097" y2="590.709"/><polygon fill="#FFB000" points="248.835,590.709,252.835,581.709,248.835,585.709,244.835,581.709,248.835,590.709" style="stroke:#FFB000;stroke-width:1.0;"/><text fill="#FFB000" font-family="Verdana" font-size="13" lengthAdjust="spacing" textLength="85.96" x="19" y="548.1802">angezeigt als</text><text fill="#FFB000" font-family="Verdana" font-size="13" lengthAdjust="spacing" textLength="8.2646" x="111.96" y="510.3809">1</text><text fill="#FFB000" font-family="Verdana" font-size="13" lengthAdjust="spacing" textLength="8.2646" x="251.835" y="585.9795">1</text><line style="stroke:#FFB000;stroke-width:1.0;" x1="308.14" x2="308.14" y1="44.0146" y2="139.4126"/><polygon fill="#FFB000" points="308.14,139.4126,312.14,130.4126,308.14,134.4126,304.14,130.4126,308.14,139.4126" style="stroke:#FFB000;stroke-width:1.0;"/><text fill="#FFB000" font-family="Verdana" font-size="13" lengthAdjust="spacing" textLength="31.5923" x="272.5477" y="96.8838">setzt</text><text fill="#FFB000" font-family="Verdana" font-size="13" lengthAdjust="spacing" textLength="8.2646" x="311.14" y="59.0845">*</text><text fill="#FFB000" font-family="Verdana" font-size="13" lengthAdjust="spacing" textLength="8.2646" x="311.14" y="134.6831">1</text><line style="stroke:#FFB000;stroke-width:1.0;" x1="324.8066" x2="324.8066" y1="166.4272" y2="194.2266"/><line style="stroke:#FFB000;stroke-width:1.0;" x1="324.8066" x2="370.1566" y1="194.2266" y2="194.2266"/><line style="stroke:#FFB000;stroke-width:1.0;" x1="370.1566" x2="370.1566" y1="194.2266" y2="398.4678"/><line style="stroke:#FFB000;stroke-width:1.0;" x1="370.1566" x2="394.4333" y1="398.4678" y2="398.4678"/><line style="stroke:#FFB000;stroke-width:1.0;" x1="394.4333" x2="394.4333" y1="398.4678" y2="426.2671"/><polygon fill="#FFB000" points="394.4333,426.2671,398.4333,417.2671,394.4333,421.2671,390.4333,417.2671,394.4333,426.2671" style="stroke:#FFB000;stroke-width:1.0;"/><text fill="#FFB000" font-family="Verdana" font-size="13" lengthAdjust="spacing" textLength="35.2422" x="375.1566" y="301.5173">filtert</text><text fill="#FFB000" font-family="Verdana" font-size="13" lengthAdjust="spacing" textLength="8.2646" x="327.8066" y="181.4971">1</text><text fill="#FFB000" font-family="Verdana" font-size="13" lengthAdjust="spacing" textLength="8.2646" x="397.4333" y="421.5376">*</text><line style="stroke:#FFB000;stroke-width:1.0;" x1="291.4733" x2="291.4733" y1="166.4272" y2="261.8252"/><polygon fill="#FFB000" points="291.4733,261.8252,295.4733,252.8252,291.4733,256.8252,287.4733,252.8252,291.4733,261.8252" style="stroke:#FFB000;stroke-width:1.0;"/><text fill="#FFB000" font-family="Verdana" font-size="13" lengthAdjust="spacing" textLength="35.2422" x="252.2311" y="219.2964">filtert</text><text fill="#FFB000" font-family="Verdana" font-size="13" lengthAdjust="spacing" textLength="8.2646" x="294.4733" y="181.4971">1</text><text fill="#FFB000" font-family="Verdana" font-size="13" lengthAdjust="spacing" textLength="8.2646" x="294.4733" y="257.0957">*</text><!--SRC=[ZL9DJyCm33qtly8RDwHA6ySTa61IBqW8SO1prdfjQ3wgn1NQVXit_XXUqwMhc0INEdwsttkscYseGODGUigbsQ4NMMYLxQIN1XwyTv-5ixHrsdcuAOh7rMebiaPLFA5ygN5Cq7Hq08FKk2hCC4darQud349aYyxBsaZGyk1w0jIjkDIphiA07ToTH2ROIzjUWOsoMor3U5SLDR3ceiZA4m3FFHrvatFw93snqI70Shs4FByVOkpRW0e4- - -lQU95MP7n1pPibTBJsJg-bxSJIQID9BBVJnpUVM1x6euFRh7Iu6M-mr0s7lay0_68NpgCmjBMU4HLiu0EIU0DUPHznfZeKpfd7-6_o7_ryQQJuOQFSPP_nLevbeynoQTqBZ_2_zsjuF-4oOOmktQXDA7dkO1qdCn4c0TY-Rhx_L2agrtfQkUc7m00]--></g></svg>