<svg
   fill="none"
   viewBox="0 0 490.99637 433.41416"
   stroke-width="1.5"
   stroke="inherit"
   version="1.1"
   id="svg1"
   width="490.99637"
   height="433.41415"
   xmlns="http://www.w3.org/2000/svg"
   xmlns:svg="http://www.w3.org/2000/svg">
  <defs
     id="defs1" />
  <g
     id="g12"
     transform="matrix(17.978399,0,0,17.978399,-40.453106,42.383974)">
    <path
       id="path1"
       style="fill:none;fill-opacity:1;fill-rule:nonzero;stroke-width:1.49981;stroke-linecap:round;stroke-linejoin:round;stroke-dasharray:none;stroke-opacity:1"
       d="m 12,6.75 h 0.008 V 6.758 H 12 v -0.008 0" />
    <path
       id="path18"
       style="fill:none;fill-opacity:1;fill-rule:nonzero;stroke-width:1.49981;stroke-linecap:round;stroke-dasharray:none;stroke-opacity:1"
       d="M 3,21 H 21" />
    <path
       id="path17"
       style="fill:none;fill-opacity:1;fill-rule:nonzero;stroke-linecap:round;stroke-linejoin:round;stroke-opacity:1"
       d="M 14.812513,9.830698 C 13.876322,9.7765449 12.938422,9.7496149 12,9.75 9.449,9.75 6.944,9.95 4.5,10.332 V 21" />
    <path
       id="path15"
       style="fill:none;fill-opacity:1;fill-rule:nonzero;stroke-linecap:round;stroke-opacity:1"
       d="M 19.5,21 V 15.642315" />
    <path
       id="path13"
       style="fill:none;fill-opacity:1;fill-rule:nonzero;stroke-width:1.49981;stroke-linecap:round;stroke-linejoin:round;stroke-dasharray:none;stroke-opacity:1"
       d="m 3,9 9,-6 2.119407,1.4129378" />
    <path
       id="path12"
       style="fill:none;fill-opacity:1;fill-rule:nonzero;stroke-linecap:round;stroke-opacity:1"
       d="M 8.25,21 V 12.75" />
    <path
       id="path11"
       style="fill:none;fill-opacity:1;fill-rule:nonzero;stroke-linecap:round;stroke-opacity:1"
       d="M 15.75,21 V 12.75" />
    <path
       id="path10"
       style="fill:none;fill-opacity:1;fill-rule:nonzero;stroke-linecap:round;stroke-opacity:1"
       d="M 12,21 V 12.75" />
  </g>
  <g
     id="g1"
     transform="matrix(17.79174,0,0,17.79174,139.6095,-57.823213)"
     style="fill:#ffffff;fill-opacity:1">
    <path
       stroke-linecap="round"
       stroke-linejoin="round"
       d="m 19,11.5 c 0,7.142 -7.5,11.25 -7.5,11.25 0,0 -7.5,-4.108 -7.5,-11.25 a 7.5,7.5 0 1 1 15,0 z"
       id="path2"
       style="display:inline;fill:#ffffff;fill-opacity:0;stroke-opacity:1" />
    <path
       stroke-linecap="round"
       stroke-linejoin="round"
       d="m 14.5,11.5 a 3,3 0 1 1 -6,0 3,3 0 0 1 6,0 z"
       id="path1-5"
       style="display:inline;fill:none;fill-opacity:0;stroke-opacity:1" />
  </g>
</svg>