<svg
  width="80.596504mm"
  height="74.571785mm"
  viewBox="0 0 80.596504 74.571785"
  version="1.1"
  id="svg1"
  xml:space="preserve"
  xmlns:xlink="http://www.w3.org/1999/xlink"
  xmlns="http://www.w3.org/2000/svg"
>
  <defs id="defs1">
    <linearGradient id="linearGradient25">
      <stop
        style="stop-color:#386641;stop-opacity:1;"
        offset="0.5"
        id="stop25"
      />
      <stop
        style="stop-color:#6a994e;stop-opacity:1;"
        offset="0.5"
        id="stop26"
      />
    </linearGradient>
    <linearGradient id="swatch9">
      <stop
        style="stop-color:#386641;stop-opacity:0;"
        offset="0"
        id="stop9"
      />
    </linearGradient>
    <linearGradient
      xlink:href="#linearGradient25"
      id="linearGradient26"
      x1="111.01341"
      y1="121.75023"
      x2="77.110291"
      y2="121.75023"
      gradientUnits="userSpaceOnUse"
      gradientTransform="translate(-36.531427,-89.259052)"
    />
  </defs>
  <g id="layer1" transform="translate(-17.40608,-8.4360451)">
    <path
      d="m 57.601135,8.4366943 c -3.753855,0.03181 -7.189484,0.9225661 -10.338904,3.4039267 -3.149423,2.48137 -4.612835,4.867306 -5.726265,8.112166 -1.113433,3.24486 -1.08163,7.38047 0.7953,11.00708 1.876928,3.6266 2.672385,4.453495 5.885429,9.161715 3.213047,4.70823 6.744219,10.657073 7.603154,12.661243 0.858933,2.00418 1.145354,2.608674 1.463476,3.340364 0.318124,0.73168 0.663009,0.293522 0.663009,0.293522 0,0 1.97954,-5.128505 4.49895,-9.447485 2.519409,-4.31899 4.63629,-7.165613 8.16746,-12.255583 3.53117,-5.08998 3.658175,-8.143899 3.658175,-9.766329 0,-1.62243 -0.218348,-5.20354 -2.704228,-9.03459 -1.74714,-2.69256 -4.262815,-4.708455 -6.076115,-5.53558 -1.8133,-0.8271186 -4.135586,-1.9722627 -7.889441,-1.9404497 z m 0.0078,9.1539637 a 6.5684586,6.5684586 0 0 1 6.568591,6.568591 6.5684586,6.5684586 0 0 1 -6.568591,6.568591 6.5684586,6.5684586 0 0 1 -6.568592,-6.568591 6.5684586,6.5684586 0 0 1 6.568592,-6.568591 z"
      style="display:inline;fill:url(#linearGradient26);stroke-width:0.42201;stroke-linejoin:round"
      id="path26"
    />
    <path
      style="fill:#445361;fill-opacity:1;stroke:none;stroke-width:0.42201;stroke-linejoin:round;stroke-opacity:1"
      d="m 56.202563,70.093548 c 0,0 -0.459,-7.13321 -1.34968,-10.57252 -1.04444,-4.03298 -3.05929,-8.81793 -4.63392,-11.60727 -1.57463,-2.78935 -5.0838,-8.0981 -8.59298,-10.97743 -3.50918,-2.87932 -5.80364,-4.6789 -12.59704,-7.15332 -6.79341,-2.47442 -9.020391,-2.30571 -11.562291,-2.5644 -0.11247,2.85684 -0.13497,4.22901 0.53987,8.05311 0.67484,3.82411 1.76081,7.77304 3.2656,11.44323 1.404581,3.42581 3.086291,6.79952 5.327391,9.7468 2.63186,3.46117 5.57869,6.34351 9.3578,9.08787 3.77911,2.74435 7.42326,3.8241 10.39256,4.58892 2.96931,0.76482 4.54394,0.98977 6.88339,1.16973 -1.47341,-4.01532 -2.06952,-4.99383 -3.91408,-7.42326 -1.84457,-2.42943 -2.69937,-3.23924 -5.03882,-4.85886 -2.33945,-1.61962 -3.28423,-2.06952 -5.84863,-3.91408 -2.5644,-1.84457 -3.71691,-3.2618 -5.1288,-5.26377 -1.02047,-1.44695 -1.97953,-3.23924 -2.33945,-4.76888 -0.35991,-1.52964 -0.61548,-2.93102 0.45552,-3.1099 0.98253,-0.1641 1.34406,1.49028 1.79395,2.39007 0.4499,0.89979 1.18554,2.7863 2.11451,3.95907 1.95954,2.47379 4.274,4.45396 7.10833,6.25353 2.83433,1.79958 4.90385,3.10428 7.82816,6.34351 2.92432,3.23925 5.93861,9.17785 5.93861,9.17785 z"
      id="path7"
    />
    <path
      style="display:inline;fill:#445361;fill-opacity:1;stroke:none;stroke-width:0.42201;stroke-linejoin:round;stroke-opacity:1"
      d="m 59.206104,70.093548 c 0,0 0.458996,-7.13321 1.349684,-10.57252 1.044432,-4.03298 3.059285,-8.81793 4.633915,-11.60727 1.57463,-2.78935 5.0838,-8.0981 8.59298,-10.97743 3.50918,-2.87932 5.80364,-4.6789 12.59704,-7.15332 6.79341,-2.47442 9.02039,-2.30571 11.56229,-2.5644 0.11247,2.85684 0.13497,4.22901 -0.53987,8.05311 -0.67484,3.82411 -1.76081,7.77304 -3.2656,11.44323 -1.40458,3.42581 -3.08629,6.79952 -5.32739,9.7468 -2.63186,3.46117 -5.57869,6.34351 -9.3578,9.08787 -3.77911,2.74435 -7.42326,3.8241 -10.39256,4.58892 -2.96931,0.76482 -4.54394,0.98977 -6.883387,1.16973 1.473407,-4.01532 2.069517,-4.99383 3.914077,-7.42326 1.84457,-2.42943 2.69937,-3.23924 5.03882,-4.85886 2.33945,-1.61962 3.28423,-2.06952 5.84863,-3.91408 2.5644,-1.84457 3.71691,-3.2618 5.1288,-5.26377 1.02047,-1.44695 1.97953,-3.23924 2.33945,-4.76888 0.35991,-1.52964 0.61548,-2.93102 -0.45552,-3.1099 -0.98253,-0.1641 -1.34406,1.49028 -1.79395,2.39007 -0.4499,0.89979 -1.18554,2.7863 -2.11451,3.95907 -1.95954,2.47379 -4.274,4.45396 -7.10833,6.25353 -2.83433,1.79958 -4.90385,3.10428 -7.82816,6.34351 -2.924317,3.23925 -5.938609,9.17785 -5.938609,9.17785 z"
      id="path9"
    />
    <circle
      style="fill:#445361;fill-opacity:1;stroke:none;stroke-width:0.42201;stroke-linejoin:round;stroke-opacity:1"
      id="circle26"
      cx="57.617188"
      cy="78.760887"
      r="4.2469473"
    />
  </g>
</svg>